<svg xmlns="http://www.w3.org/2000/svg" viewBox="0 0 512 512">
  <path
    fill="white"
    d="M169 81l70 71 17-5 17 5 70-71 35 112c41 31 65 79 65 131 0 91-84 166-187 166S69 415 69 324c0-52 24-100 65-131l35-112zm87 82c-83 0-150 63-150 141s67 141 150 141 150-63 150-141-67-141-150-141zm-67 121c18 0 33 15 33 33s-15 33-33 33-33-15-33-33 15-33 33-33zm134 0c18 0 33 15 33 33s-15 33-33 33-33-15-33-33 15-33 33-33zm-101 87c12 19 35 31 60 31s48-12 60-31l22 14c-17 27-48 43-82 43s-65-16-82-43l22-14z"
  />
</svg>
