<svg xmlns="http://www.w3.org/2000/svg" viewBox="0 0 512 512">
  <path
    fill="white"
    d="M139 141c-27 6-48 30-51 59l-10 90c-3 31 18 59 49 64l15 2c14 74 72 123 154 123 92 0 157-57 157-153 0-81-61-149-141-161l-35-72c-8-17-32-17-40 0l-27 58h-31l-22-10c-6-3-12-3-18 0zm76 55h79c64 0 115 49 115 111 0 69-43 109-113 109-64 0-108-37-115-96l-4-32-42-6 8-73 37 38c8 8 22 8 30 0zm143 38c22 0 39 17 39 39s-17 39-39 39-39-17-39-39 17-39 39-39zm-165 5c20 0 37 16 37 37s-17 37-37 37-37-16-37-37 17-37 37-37zm35 94h80c0 29-20 49-40 49s-40-20-40-49z"
  />
</svg>
