<svg xmlns="http://www.w3.org/2000/svg" viewBox="0 0 512 512">
  <path
    fill="white"
    d="M253 42c-24 24-35 46-42 72-77 8-142 68-142 144 0 52 25 93 69 119-13 19-23 39-31 60-12 34-17 56-17 56h62s8-44 27-82c15-31 32-46 49-55l-3 137h61l-3-139c18 10 34 26 49 57 18 37 26 82 26 82h62s-5-22-17-56c-8-22-18-42-31-60 44-26 69-67 69-119 0-76-65-136-142-144-7-26-18-48-42-72zm-69 132c18 0 32 14 32 32s-14 32-32 32-32-14-32-32 14-32 32-32zm138 0c18 0 32 14 32 32s-14 32-32 32-32-14-32-32 14-32 32-32zm-188 90c24-43 72-70 122-70s98 27 122 70c-27 16-57 24-88 24-20 0-34 22-25 40 8 16 19 32 35 50-16-2-30 7-34 21l-9 34-12-49c-3-11-12-19-23-21 16-18 27-34 35-50 9-18-5-40-25-40-31 0-61-8-88-24z"
  />
</svg>
